<?xml version="1.0" encoding="UTF-8" standalone="no"?>
<!DOCTYPE svg PUBLIC "-//W3C//DTD SVG 1.1//EN" "http://www.w3.org/Graphics/SVG/1.1/DTD/svg11.dtd">
<svg xmlns="http://www.w3.org/2000/svg" version="1.1" viewBox="0.00 0.00 112.00 101.00">
<g stroke-width="2.00" fill="none" stroke-linecap="butt">
<path stroke="#006378" vector-effect="non-scaling-stroke" d="
  M 26.63 43.70
  C 30.23 40.35 34.22 38.77 39.06 38.67
  C 42.21 38.60 44.06 36.43 43.93 33.39
  Q 43.73 28.57 47.25 23.38
  C 49.74 19.72 54.77 16.21 50.40 11.29
  C 47.91 8.50 43.43 8.33 40.80 11.13
  C 38.53 13.55 39.00 17.14 40.71 19.83
  C 43.35 23.99 42.11 30.27 39.04 33.21
  Q 32.13 39.81 23.88 35.14
  C 18.06 31.84 11.66 37.56 14.78 43.58
  C 17.51 48.85 23.28 46.81 26.63 43.70"
/>
<path stroke="#a6385f" vector-effect="non-scaling-stroke" d="
  M 36.19 63.65
  Q 44.93 67.61 42.75 78.18
  C 42.29 80.40 40.86 82.68 41.25 84.92
  C 42.32 90.98 49.99 92.77 53.15 87.08
  C 55.89 82.13 51.32 78.04 47.87 75.04
  C 44.58 72.17 43.37 66.87 45.59 63.14
  Q 47.80 59.44 50.63 57.82
  C 55.58 54.99 59.84 56.48 64.10 59.71
  Q 65.97 61.13 64.84 59.07
  C 62.61 55.00 60.65 52.68 62.24 48.07
  Q 63.66 43.95 67.90 41.43
  Q 74.29 37.63 81.06 43.30
  C 84.41 46.11 85.12 50.53 90.86 49.06
  C 99.19 46.92 95.46 33.81 86.21 37.61
  C 81.60 39.51 74.55 40.05 71.05 35.81
  Q 65.16 28.69 68.78 20.50
  C 69.87 18.04 70.28 14.86 69.08 12.41
  C 65.46 5.07 52.93 12.90 59.74 20.28
  C 62.08 22.81 65.07 24.93 66.16 28.34
  Q 69.20 37.88 61.13 42.56
  C 57.80 44.49 53.53 44.81 50.25 42.44
  Q 48.36 41.08 46.49 40.01
  Q 45.84 39.65 45.23 40.03
  A 0.61 0.60 50.7 0 0 45.14 40.98
  C 47.84 43.52 50.50 47.42 49.65 51.29
  Q 47.37 61.69 36.44 61.02
  C 32.53 60.78 29.86 58.32 27.38 55.65
  C 24.44 52.50 19.92 50.59 16.33 54.05
  C 13.85 56.43 13.80 60.95 16.46 63.23
  C 20.00 66.27 23.08 64.46 26.71 63.18
  Q 31.44 61.50 36.19 63.65"
/>
<path stroke="#006378" vector-effect="non-scaling-stroke" d="
  M 37.71 26.55
  A 6.12 6.12 0.0 0 0 31.59 20.43
  A 6.12 6.12 0.0 0 0 25.47 26.55
  A 6.12 6.12 0.0 0 0 31.59 32.67
  A 6.12 6.12 0.0 0 0 37.71 26.55"
/>
<path stroke="#006378" vector-effect="non-scaling-stroke" d="
  M 84.96 26.55
  A 6.11 6.11 0.0 0 0 78.85 20.44
  A 6.11 6.11 0.0 0 0 72.74 26.55
  A 6.11 6.11 0.0 0 0 78.85 32.66
  A 6.11 6.11 0.0 0 0 84.96 26.55"
/>
<path stroke="#006378" vector-effect="non-scaling-stroke" d="
  M 62.03 32.24
  A 6.10 6.10 0.0 0 0 55.93 26.14
  A 6.10 6.10 0.0 0 0 49.83 32.24
  A 6.10 6.10 0.0 0 0 55.93 38.34
  A 6.10 6.10 0.0 0 0 62.03 32.24"
/>
<path stroke="#006378" vector-effect="non-scaling-stroke" d="
  M 79.70 49.81
  A 6.11 6.11 0.0 0 0 73.59 43.70
  A 6.11 6.11 0.0 0 0 67.48 49.81
  A 6.11 6.11 0.0 0 0 73.59 55.92
  A 6.11 6.11 0.0 0 0 79.70 49.81"
/>
<path stroke="#006378" vector-effect="non-scaling-stroke" d="
  M 43.86 50.27
  A 6.09 6.09 0.0 0 0 37.77 44.18
  A 6.09 6.09 0.0 0 0 31.68 50.27
  A 6.09 6.09 0.0 0 0 37.77 56.36
  A 6.09 6.09 0.0 0 0 43.86 50.27"
/>
<path stroke="#006378" vector-effect="non-scaling-stroke" d="
  M 72.03 62.23
  Q 67.39 62.27 67.11 67.45
  C 66.89 71.62 65.59 75.52 62.74 78.52
  Q 60.80 80.54 59.40 83.44
  C 56.91 88.59 63.57 93.28 68.07 90.61
  C 71.65 88.49 72.67 84.58 70.45 81.09
  Q 67.51 76.48 69.56 71.07
  C 72.29 63.88 80.52 61.44 86.90 65.31
  C 90.69 67.62 94.84 66.34 96.58 62.06
  C 98.07 58.40 95.12 54.55 91.48 54.16
  C 88.45 53.84 86.36 55.68 84.28 57.52
  C 80.87 60.54 76.58 62.19 72.03 62.23"
/>
<path stroke="#006378" vector-effect="non-scaling-stroke" d="
  M 61.55 67.82
  A 6.10 6.10 0.0 0 0 55.45 61.72
  A 6.10 6.10 0.0 0 0 49.35 67.82
  A 6.10 6.10 0.0 0 0 55.45 73.92
  A 6.10 6.10 0.0 0 0 61.55 67.82"
/>
<path stroke="#006378" vector-effect="non-scaling-stroke" d="
  M 38.62 73.49
  A 6.08 6.08 0.0 0 0 32.54 67.41
  A 6.08 6.08 0.0 0 0 26.46 73.49
  A 6.08 6.08 0.0 0 0 32.54 79.57
  A 6.08 6.08 0.0 0 0 38.62 73.49"
/>
<path stroke="#006378" vector-effect="non-scaling-stroke" d="
  M 85.44 73.97
  A 6.11 6.11 0.0 0 0 79.33 67.86
  A 6.11 6.11 0.0 0 0 73.22 73.97
  A 6.11 6.11 0.0 0 0 79.33 80.08
  A 6.11 6.11 0.0 0 0 85.44 73.97"
/>
</g>
<path fill="none" d="
  M 0.00 0.00
  L 112.00 0.00
  L 112.00 101.00
  L 0.00 101.00
  L 0.00 0.00
  Z
  M 26.63 43.70
  C 30.23 40.35 34.22 38.77 39.06 38.67
  C 42.21 38.60 44.06 36.43 43.93 33.39
  Q 43.73 28.57 47.25 23.38
  C 49.74 19.72 54.77 16.21 50.40 11.29
  C 47.91 8.50 43.43 8.33 40.80 11.13
  C 38.53 13.55 39.00 17.14 40.71 19.83
  C 43.35 23.99 42.11 30.27 39.04 33.21
  Q 32.13 39.81 23.88 35.14
  C 18.06 31.84 11.66 37.56 14.78 43.58
  C 17.51 48.85 23.28 46.81 26.63 43.70
  Z
  M 36.19 63.65
  Q 44.93 67.61 42.75 78.18
  C 42.29 80.40 40.86 82.68 41.25 84.92
  C 42.32 90.98 49.99 92.77 53.15 87.08
  C 55.89 82.13 51.32 78.04 47.87 75.04
  C 44.58 72.17 43.37 66.87 45.59 63.14
  Q 47.80 59.44 50.63 57.82
  C 55.58 54.99 59.84 56.48 64.10 59.71
  Q 65.97 61.13 64.84 59.07
  C 62.61 55.00 60.65 52.68 62.24 48.07
  Q 63.66 43.95 67.90 41.43
  Q 74.29 37.63 81.06 43.30
  C 84.41 46.11 85.12 50.53 90.86 49.06
  C 99.19 46.92 95.46 33.81 86.21 37.61
  C 81.60 39.51 74.55 40.05 71.05 35.81
  Q 65.16 28.69 68.78 20.50
  C 69.87 18.04 70.28 14.86 69.08 12.41
  C 65.46 5.07 52.93 12.90 59.74 20.28
  C 62.08 22.81 65.07 24.93 66.16 28.34
  Q 69.20 37.88 61.13 42.56
  C 57.80 44.49 53.53 44.81 50.25 42.44
  Q 48.36 41.08 46.49 40.01
  Q 45.84 39.65 45.23 40.03
  A 0.61 0.60 50.7 0 0 45.14 40.98
  C 47.84 43.52 50.50 47.42 49.65 51.29
  Q 47.37 61.69 36.44 61.02
  C 32.53 60.78 29.86 58.32 27.38 55.65
  C 24.44 52.50 19.92 50.59 16.33 54.05
  C 13.85 56.43 13.80 60.95 16.46 63.23
  C 20.00 66.27 23.08 64.46 26.71 63.18
  Q 31.44 61.50 36.19 63.65
  Z
  M 37.71 26.55
  A 6.12 6.12 0.0 0 0 31.59 20.43
  A 6.12 6.12 0.0 0 0 25.47 26.55
  A 6.12 6.12 0.0 0 0 31.59 32.67
  A 6.12 6.12 0.0 0 0 37.71 26.55
  Z
  M 84.96 26.55
  A 6.11 6.11 0.0 0 0 78.85 20.44
  A 6.11 6.11 0.0 0 0 72.74 26.55
  A 6.11 6.11 0.0 0 0 78.85 32.66
  A 6.11 6.11 0.0 0 0 84.96 26.55
  Z
  M 62.03 32.24
  A 6.10 6.10 0.0 0 0 55.93 26.14
  A 6.10 6.10 0.0 0 0 49.83 32.24
  A 6.10 6.10 0.0 0 0 55.93 38.34
  A 6.10 6.10 0.0 0 0 62.03 32.24
  Z
  M 79.70 49.81
  A 6.11 6.11 0.0 0 0 73.59 43.70
  A 6.11 6.11 0.0 0 0 67.48 49.81
  A 6.11 6.11 0.0 0 0 73.59 55.92
  A 6.11 6.11 0.0 0 0 79.70 49.81
  Z
  M 43.86 50.27
  A 6.09 6.09 0.0 0 0 37.77 44.18
  A 6.09 6.09 0.0 0 0 31.68 50.27
  A 6.09 6.09 0.0 0 0 37.77 56.36
  A 6.09 6.09 0.0 0 0 43.86 50.27
  Z
  M 72.03 62.23
  Q 67.39 62.27 67.11 67.45
  C 66.89 71.62 65.59 75.52 62.74 78.52
  Q 60.80 80.54 59.40 83.44
  C 56.91 88.59 63.57 93.28 68.07 90.61
  C 71.65 88.49 72.67 84.58 70.45 81.09
  Q 67.51 76.48 69.56 71.07
  C 72.29 63.88 80.52 61.44 86.90 65.31
  C 90.69 67.62 94.84 66.34 96.58 62.06
  C 98.07 58.40 95.12 54.55 91.48 54.16
  C 88.45 53.84 86.36 55.68 84.28 57.52
  C 80.87 60.54 76.58 62.19 72.03 62.23
  Z
  M 61.55 67.82
  A 6.10 6.10 0.0 0 0 55.45 61.72
  A 6.10 6.10 0.0 0 0 49.35 67.82
  A 6.10 6.10 0.0 0 0 55.45 73.92
  A 6.10 6.10 0.0 0 0 61.55 67.82
  Z
  M 38.62 73.49
  A 6.08 6.08 0.0 0 0 32.54 67.41
  A 6.08 6.08 0.0 0 0 26.46 73.49
  A 6.08 6.08 0.0 0 0 32.54 79.57
  A 6.08 6.08 0.0 0 0 38.62 73.49
  Z
  M 85.44 73.97
  A 6.11 6.11 0.0 0 0 79.33 67.86
  A 6.11 6.11 0.0 0 0 73.22 73.97
  A 6.11 6.11 0.0 0 0 79.33 80.08
  A 6.11 6.11 0.0 0 0 85.44 73.97
  Z"
/>
<path fill="#006378" d="
  M 39.06 38.67
  C 34.22 38.77 30.23 40.35 26.63 43.70
  C 23.28 46.81 17.51 48.85 14.78 43.58
  C 11.66 37.56 18.06 31.84 23.88 35.14
  Q 32.13 39.81 39.04 33.21
  C 42.11 30.27 43.35 23.99 40.71 19.83
  C 39.00 17.14 38.53 13.55 40.80 11.13
  C 43.43 8.33 47.91 8.50 50.40 11.29
  C 54.77 16.21 49.74 19.72 47.25 23.38
  Q 43.73 28.57 43.93 33.39
  C 44.06 36.43 42.21 38.60 39.06 38.67
  Z"
/>
<path fill="#a6385f" d="
  M 36.19 63.65
  Q 31.44 61.50 26.71 63.18
  C 23.08 64.46 20.00 66.27 16.46 63.23
  C 13.80 60.95 13.85 56.43 16.33 54.05
  C 19.92 50.59 24.44 52.50 27.38 55.65
  C 29.86 58.32 32.53 60.78 36.44 61.02
  Q 47.37 61.69 49.65 51.29
  C 50.50 47.42 47.84 43.52 45.14 40.98
  A 0.61 0.60 50.7 0 1 45.23 40.03
  Q 45.84 39.65 46.49 40.01
  Q 48.36 41.08 50.25 42.44
  C 53.53 44.81 57.80 44.49 61.13 42.56
  Q 69.20 37.88 66.16 28.34
  C 65.07 24.93 62.08 22.81 59.74 20.28
  C 52.93 12.90 65.46 5.07 69.08 12.41
  C 70.28 14.86 69.87 18.04 68.78 20.50
  Q 65.16 28.69 71.05 35.81
  C 74.55 40.05 81.60 39.51 86.21 37.61
  C 95.46 33.81 99.19 46.92 90.86 49.06
  C 85.12 50.53 84.41 46.11 81.06 43.30
  Q 74.29 37.63 67.90 41.43
  Q 63.66 43.95 62.24 48.07
  C 60.65 52.68 62.61 55.00 64.84 59.07
  Q 65.97 61.13 64.10 59.71
  C 59.84 56.48 55.58 54.99 50.63 57.82
  Q 47.80 59.44 45.59 63.14
  C 43.37 66.87 44.58 72.17 47.87 75.04
  C 51.32 78.04 55.89 82.13 53.15 87.08
  C 49.99 92.77 42.32 90.98 41.25 84.92
  C 40.86 82.68 42.29 80.40 42.75 78.18
  Q 44.93 67.61 36.19 63.65
  Z"
/>
<circle fill="#006378" cx="31.59" cy="26.55" r="6.12"/>
<circle fill="#006378" cx="78.85" cy="26.55" r="6.11"/>
<circle fill="#006378" cx="55.93" cy="32.24" r="6.10"/>
<circle fill="#006378" cx="73.59" cy="49.81" r="6.11"/>
<circle fill="#006378" cx="37.77" cy="50.27" r="6.09"/>
<path fill="#006378" d="
  M 72.03 62.23
  C 76.58 62.19 80.87 60.54 84.28 57.52
  C 86.36 55.68 88.45 53.84 91.48 54.16
  C 95.12 54.55 98.07 58.40 96.58 62.06
  C 94.84 66.34 90.69 67.62 86.90 65.31
  C 80.52 61.44 72.29 63.88 69.56 71.07
  Q 67.51 76.48 70.45 81.09
  C 72.67 84.58 71.65 88.49 68.07 90.61
  C 63.57 93.28 56.91 88.59 59.40 83.44
  Q 60.80 80.54 62.74 78.52
  C 65.59 75.52 66.89 71.62 67.11 67.45
  Q 67.39 62.27 72.03 62.23
  Z"
/>
<circle fill="#006378" cx="55.45" cy="67.82" r="6.10"/>
<circle fill="#006378" cx="32.54" cy="73.49" r="6.08"/>
<circle fill="#006378" cx="79.33" cy="73.97" r="6.11"/>
</svg>
